<?xml version="1.0" encoding="UTF-8" standalone="no"?><!-- Generator: Gravit.io --><svg xmlns="http://www.w3.org/2000/svg" xmlns:xlink="http://www.w3.org/1999/xlink" style="isolation:isolate" viewBox="0 0 512.041 502.439" width="512.041pt" height="502.439pt"><defs><clipPath id="_clipPath_QtTyrpJ4tTeWBYPhHh4VFNXrjQjJbF9S"><rect width="512.041" height="502.439"/></clipPath></defs><g clip-path="url(#_clipPath_QtTyrpJ4tTeWBYPhHh4VFNXrjQjJbF9S)"><g><path d=" M 467.015 283.08 C 488.445 281.432 505.753 295.444 507.401 316.873 C 509.05 339.127 493.39 357.259 471.961 358.908 C 451.355 360.556 433.223 344.896 431.574 324.291 C 429.926 302.037 444.762 285.553 467.015 283.08 Z " fill="rgb(0,0,0)"/><path d=" M 206.565 458.637 C 206.565 437.207 223.05 420.723 242.831 420.723 C 262.612 420.723 281.568 438.856 281.568 459.461 C 281.568 479.242 265.084 496.55 246.127 497.375 C 222.225 497.375 206.565 482.539 206.565 458.637 Z " fill="rgb(0,0,0)"/><path d=" M 265.084 217.968 C 261.787 219.616 260.139 217.144 259.315 214.671 C 228.819 157.801 237.885 86.095 291.459 43.236 C 305.47 31.697 331.845 29.224 343.384 40.763 C 348.329 44.884 349.153 49.829 349.978 55.599 C 351.626 67.962 354.099 80.325 362.341 90.216 C 371.407 100.93 382.946 105.051 396.133 104.227 C 407.672 104.227 419.211 102.579 426.629 115.766 C 430.75 123.184 429.102 152.031 422.508 157.801 C 419.211 160.273 416.739 158.625 414.266 157.801 C 395.309 150.383 375.528 150.383 355.747 153.68 C 349.153 154.504 345.857 152.856 345.857 145.438 C 345.032 133.075 342.56 121.536 335.966 110.821 C 323.603 88.567 300.525 87.743 285.689 108.348 C 273.326 124.832 270.029 144.613 266.733 164.394 C 263.436 181.703 264.26 199.835 265.084 217.968 C 265.084 217.968 264.26 217.968 265.084 217.968 L 265.084 217.968 Z " fill="rgb(0,0,0)"/><path d=" M 285.689 230.331 C 284.041 227.858 284.865 225.386 287.338 223.737 C 334.318 180.879 404.375 172.637 458.773 214.671 C 472.785 226.21 481.851 250.112 474.433 264.124 C 471.136 269.893 467.015 272.366 462.07 274.014 C 450.531 278.959 439.816 283.905 432.399 294.619 C 424.981 305.334 423.332 317.697 426.629 330.885 C 429.102 341.599 433.223 353.138 422.508 363.029 C 416.739 368.798 388.715 373.743 381.298 368.798 C 378.001 366.325 378.825 363.853 379.649 360.556 C 382.122 339.951 377.177 320.994 369.759 302.861 C 367.286 296.268 368.11 292.971 374.704 291.323 C 386.243 288.026 396.958 282.256 405.2 274.014 C 423.332 256.706 419.211 234.452 395.309 224.562 C 376.352 216.32 356.571 217.968 337.615 219.616 C 319.482 220.441 302.174 225.386 285.689 230.331 Z " fill="rgb(0,0,0)"/><path d=" M 274.975 251.761 C 277.447 249.288 279.096 250.112 281.568 251.761 C 335.966 284.729 363.989 349.841 339.263 413.305 C 332.669 429.79 311.24 446.274 295.58 442.153 C 288.986 440.504 285.689 437.207 282.393 433.086 C 274.975 423.196 266.733 414.13 254.37 410.009 C 241.182 405.887 229.643 408.36 218.104 414.954 C 208.214 420.723 198.323 428.141 185.96 420.723 C 178.542 416.602 166.179 391.052 168.652 382.81 C 170.3 379.513 173.597 379.513 176.894 379.513 C 197.499 376.216 213.983 366.325 229.643 353.138 C 234.589 349.017 238.71 349.017 242.831 354.787 C 249.424 364.677 257.666 372.919 268.381 378.689 C 289.81 391.052 310.416 380.337 312.888 355.611 C 315.361 335.006 307.943 316.873 301.349 298.74 C 293.932 282.256 284.865 266.596 274.975 251.761 L 274.975 251.761 Z " fill="rgb(0,0,0)"/><path d=" M 248.6 256.706 C 245.303 273.19 237.885 288.85 227.995 302.861 C 198.323 347.369 155.465 365.501 102.715 360.556 C 83.758 358.908 68.098 343.248 66.45 327.588 C 65.626 320.994 67.274 316.049 71.395 311.104 C 77.165 303.686 82.11 297.092 84.583 288.026 C 89.528 269.893 82.934 255.057 69.747 241.87 C 51.614 223.737 54.087 207.253 75.516 194.066 C 77.989 192.418 81.286 190.769 84.583 189.121 C 89.528 186.648 93.649 186.648 95.297 192.418 C 102.715 211.374 117.551 225.386 134.035 236.925 C 139.805 241.87 139.805 245.167 134.859 250.936 C 124.969 261.651 119.199 274.838 118.375 289.674 C 116.727 307.807 127.441 319.346 145.574 319.346 C 157.113 319.346 167.828 315.225 177.718 310.279 C 203.269 297.092 223.05 278.135 242.006 258.354 C 244.479 257.53 245.303 255.882 248.6 256.706 Z " fill="rgb(0,0,0)"/><path d=" M 113.43 83.622 C 115.078 83.622 119.199 84.446 123.32 85.27 C 153.816 91.04 172.773 80.325 182.663 51.478 C 189.257 32.521 203.269 26.752 221.401 36.642 C 222.225 36.642 222.225 37.466 223.05 37.466 C 242.006 48.181 242.006 49.829 230.467 66.314 C 220.577 79.501 215.632 94.337 213.159 109.997 C 211.511 119.063 208.214 120.711 199.972 117.415 C 186.784 112.469 172.773 112.469 158.761 117.415 C 143.101 122.36 136.508 136.371 141.453 152.031 C 148.047 172.637 166.179 181.703 181.839 192.418 C 197.499 203.132 215.632 208.902 232.94 216.32 C 235.413 217.144 239.534 217.144 238.71 221.265 C 237.885 223.737 234.589 223.737 231.292 223.737 C 194.202 225.386 158.761 219.616 129.914 194.89 C 102.715 172.637 82.934 145.438 86.231 107.524 C 88.704 95.161 97.77 86.095 113.43 83.622 Z " fill="rgb(0,0,0)"/><path d=" M 45.845 315.225 C 26.064 317.697 6.283 301.213 4.634 280.608 C 2.986 260.827 19.47 241.046 38.427 239.397 C 59.856 236.925 79.637 251.761 81.286 271.542 C 82.11 290.498 69.747 313.576 45.845 315.225 Z " fill="rgb(0,0,0)"/><path d=" M 392.012 21.806 C 412.618 20.158 432.399 36.642 434.047 57.247 C 435.695 77.028 419.211 95.985 399.43 97.634 C 378.001 99.282 359.044 83.622 357.396 63.017 C 355.747 42.412 370.583 23.455 392.012 21.806 Z " fill="rgb(0,0,0)"/><path d=" M 176.894 37.466 C 179.367 58.896 164.531 77.028 142.277 80.325 C 123.32 82.798 103.539 67.138 101.067 49.005 C 98.594 25.103 111.781 7.795 134.035 5.322 C 154.64 2.85 174.421 18.51 176.894 37.466 Z " fill="rgb(0,0,0)"/></g></g></svg>