<?xml version="1.0" encoding="UTF-8" standalone="no"?><!-- Generator: Gravit.io --><svg xmlns="http://www.w3.org/2000/svg" xmlns:xlink="http://www.w3.org/1999/xlink" style="isolation:isolate" viewBox="0 0 512.041 502.439" width="512.041pt" height="502.439pt"><defs><clipPath id="_clipPath_rZQHhCZ2XCxYxlStIdrFkKkjvScrYC2a"><rect width="512.041" height="502.439"/></clipPath></defs><g clip-path="url(#_clipPath_rZQHhCZ2XCxYxlStIdrFkKkjvScrYC2a)"><path d=" M 257.489 14.038 L 194.065 77.925 L 84.06 77.925 L 84.06 185.917 L 17.52 251.443 L 84.06 316.969 L 84.06 424.112 L 190.89 424.112 L 256.177 488.401 L 321.464 424.112 L 429.382 424.112 L 429.382 317.282 L 494.521 251.756 L 430.321 187.08 L 430.321 78.7 L 321.792 78.7 L 257.489 14.038 Z  M 257.489 28.944 L 307.021 78.715 L 273.408 78.715 L 273.408 206.741 L 257.489 222.735 L 241.42 206.592 L 241.42 77.954 L 208.896 77.954 L 257.489 28.944 Z  M 94.539 88.329 L 183.66 88.329 L 146.396 125.832 L 230.942 210.914 L 230.942 223.882 L 215.097 223.882 L 130.312 140.35 L 94.524 175.513 L 94.539 88.329 Z  M 198.402 88.329 L 230.927 88.329 L 230.927 196.008 L 161.212 125.832 L 198.402 88.329 Z  M 283.961 89.179 L 317.499 89.179 L 353.84 125.817 L 283.961 196.157 L 283.961 89.179 Z  M 332.256 89.179 L 419.753 89.179 L 419.753 176.512 L 383.413 139.948 L 299.106 224.732 L 283.961 224.732 L 283.961 210.989 L 368.582 125.817 L 332.256 89.179 Z  M 383.413 154.779 L 419.753 191.417 L 419.753 224.717 L 313.937 224.717 L 383.413 154.779 Z  M 130.327 155.017 L 200.206 223.882 L 94.539 223.882 L 94.539 190.27 L 130.327 155.017 Z  M 84.06 200.585 L 84.06 234.361 L 210.834 234.361 L 228.139 251.369 L 212.533 266.662 L 84.119 266.662 L 84.119 302.212 L 32.486 251.443 L 84.06 200.585 Z  M 430.307 201.986 L 479.764 251.667 L 429.382 302.361 L 429.382 266.647 L 301.983 266.647 L 287.077 251.667 L 303.458 235.211 L 430.307 235.211 L 430.307 201.986 Z  M 241.42 221.393 L 257.489 237.625 L 261.215 233.899 L 273.408 221.557 L 273.408 235.226 L 288.701 235.226 L 272.32 251.682 L 287.226 266.662 L 272.946 266.662 L 272.946 282.73 L 256.177 266.274 L 241.42 280.793 L 241.42 266.736 L 227.528 266.736 L 243.06 251.443 L 239.333 247.717 L 225.754 234.361 L 241.435 234.361 L 241.42 221.393 Z  M 94.539 277.215 L 201.905 277.215 L 130.327 347.705 L 94.613 312.542 L 94.539 277.215 Z  M 216.885 277.215 L 230.942 277.215 L 230.942 291.107 L 143.444 377.278 L 180.247 413.529 L 94.539 413.529 L 94.539 327.284 L 130.327 362.447 L 216.885 277.215 Z  M 283.425 277.215 L 297.63 277.215 L 383.413 363.46 L 387.139 359.808 L 418.889 327.746 L 418.889 413.529 L 332.092 413.529 L 368.969 377.278 L 365.168 373.626 L 283.425 293.045 L 283.425 277.215 Z  M 312.446 277.215 L 418.889 277.215 L 418.889 312.93 L 383.413 348.644 L 312.446 277.215 Z  M 256.162 280.942 L 272.931 297.472 L 272.931 424.022 L 306.469 424.022 L 256.162 473.629 L 205.855 424.022 L 241.405 424.022 L 241.405 295.534 L 256.162 280.942 Z  M 230.942 305.864 L 230.942 413.544 L 195.153 413.544 L 158.35 377.367 L 230.942 305.864 Z  M 283.425 307.802 L 353.989 377.278 L 317.186 413.618 L 283.41 413.618 L 283.425 307.802 Z " fill="rgb(0,0,0)"/></g></svg>