<?xml version="1.0" encoding="UTF-8" standalone="no"?><!-- Generator: Gravit.io --><svg xmlns="http://www.w3.org/2000/svg" xmlns:xlink="http://www.w3.org/1999/xlink" style="isolation:isolate" viewBox="0 0 512.041 502.439" width="512.041pt" height="502.439pt"><defs><clipPath id="_clipPath_HWuTu6Xr5bqUoDmTWnklGtkdIBdpWiWR"><rect width="512.041" height="502.439"/></clipPath></defs><g clip-path="url(#_clipPath_HWuTu6Xr5bqUoDmTWnklGtkdIBdpWiWR)"><path d=" M 199.927 24.168 C 147.967 29.644 138.016 36.333 90.944 71.946 C 75.168 83.882 46.131 112.925 38.691 147.38 C 35.857 160.502 39.207 171.83 48.658 179.776 C 78.919 205.217 129.568 225.857 171.12 245.81 C 183.291 251.654 175.231 262.251 155.606 279.241 C 106.082 322.117 39.122 374.308 34.448 414.075 C 32.246 432.816 38.661 458.281 61.408 471.311 C 87.979 486.534 143.137 476.598 179.967 462.884 C 233.789 442.842 304.489 398.609 360.618 355.129 C 418.986 309.917 473.254 252.491 475.938 243.124 C 479.235 231.622 478.906 220.998 472.544 208.785 C 462.555 189.605 449.199 175.352 434.857 159.4 C 396.378 118.833 355.665 83.188 306.954 55.872 C 271.777 36.147 240.828 19.858 199.927 24.168 L 199.927 24.168 Z  M 276.254 115.117 C 313.793 133.265 352.343 180.936 275.92 208.374 C 255.138 215.834 189.232 190.051 191.249 154.863 C 194.192 102.884 230.419 92.957 276.254 115.117 L 276.254 115.117 L 276.254 115.117 Z " fill-rule="evenodd" fill="rgb(0,0,0)"/></g></svg>