<?xml version="1.0" encoding="UTF-8" standalone="no"?><!-- Generator: Gravit.io --><svg xmlns="http://www.w3.org/2000/svg" xmlns:xlink="http://www.w3.org/1999/xlink" style="isolation:isolate" viewBox="0 0 512.041 502.439" width="512.041pt" height="502.439pt"><defs><clipPath id="_clipPath_zWgTBaiJOtZFLjsd6HbfJp0o32iQj38H"><rect width="512.041" height="502.439"/></clipPath></defs><g clip-path="url(#_clipPath_zWgTBaiJOtZFLjsd6HbfJp0o32iQj38H)"><path d=" M 417.11 192.375 C 417.39 184.8 420.562 177.77 426.1 172.614 C 431.641 167.44 438.871 164.767 446.453 165.007 C 462.084 165.566 474.365 178.761 473.837 194.376 C 473.542 201.951 470.372 208.981 464.847 214.121 C 459.306 219.326 452.093 222 444.477 221.744 C 428.865 221.169 416.597 208.004 417.126 192.375 L 417.11 192.375 Z  M 492.935 220.303 C 494.224 219.451 495.17 218.746 495.569 218.589 L 496 217.918 C 494.909 211.064 484.694 177.836 476.976 169.845 C 474.847 167.667 473.142 165.521 469.691 163.502 C 441.731 147.216 375.434 137.383 372.327 136.935 L 371.799 137.081 L 371.6 137.561 C 371.6 137.561 371.344 151.301 371.305 152.837 C 364.533 150.561 315.305 134.661 269.154 133.06 C 230.016 131.684 173.023 126.622 97.486 173.062 L 95.252 174.452 C 59.717 196.615 35.184 223.951 22.357 255.706 C 18.334 265.699 12.925 288.246 18.286 309.464 C 20.596 318.738 24.902 328.056 30.707 336.399 C 43.828 355.248 65.841 367.754 89.557 369.868 C 123.026 372.863 148.376 357.827 157.392 329.674 C 163.591 310.249 157.392 281.744 133.627 267.204 C 114.299 255.368 93.513 258.058 81.454 266.035 C 70.994 272.97 65.072 283.746 65.168 295.58 C 65.41 316.574 83.488 327.736 96.491 327.768 C 100.269 327.768 104.063 327.111 108.34 325.718 C 109.863 325.254 111.294 324.679 112.873 323.702 L 113.368 323.412 L 113.679 323.204 L 113.575 323.266 C 116.539 321.247 118.321 317.963 118.321 314.441 C 118.321 313.48 118.187 312.507 117.911 311.527 C 116.376 306.21 111.123 302.993 105.68 303.984 L 104.945 304.159 L 103.951 304.463 L 102.508 304.96 C 99.513 305.696 97.271 305.76 96.792 305.776 C 95.269 305.679 87.785 303.437 87.785 295.239 L 87.785 295.127 C 87.785 292.116 88.992 290.004 89.658 288.85 C 91.987 285.198 98.362 281.615 106.969 282.364 C 118.273 283.342 126.426 289.139 131.823 300.075 C 136.833 310.242 135.522 322.751 128.444 331.911 C 121.414 340.989 108.907 344.847 92.252 343.055 C 75.47 341.199 61.282 331.541 53.339 316.504 C 45.563 301.806 45.138 284.38 52.242 270.993 C 69.233 238.917 101.324 239.253 118.923 242.296 C 144.962 246.813 174.587 270.833 185.092 298.568 C 186.79 302.99 187.655 306.494 188.41 309.7 L 189.544 314.488 L 218.962 328.85 L 219.346 329.14 L 220.06 329.075 L 220.19 328.228 C 220.007 327.569 219.58 326.964 218.901 318.731 C 218.342 311.426 217.203 291.428 227.273 281.515 C 231.182 277.642 237.139 274.184 241.844 273.078 C 261.124 268.368 283.736 271.617 305.114 296.362 C 316.181 309.142 321.576 314.97 324.283 317.58 L 325.227 318.432 L 326.339 319.263 C 327.226 319.745 363.106 336.27 363.106 336.27 L 363.845 336.094 L 363.859 335.326 C 363.62 335.054 341.119 305.973 345.123 282.033 C 348.276 262.96 363.459 264.69 384.453 267.06 C 391.307 267.86 399.109 268.757 407.192 268.936 C 429.74 269.079 454.033 264.915 469.006 258.366 C 478.692 254.154 484.874 251.352 488.751 247.83 C 490.144 246.676 490.864 244.802 491.619 242.786 L 492.145 241.455 C 492.772 239.82 493.694 236.377 494.098 234.489 C 494.261 233.658 494.357 232.779 493.763 232.313 L 491.691 232.697 C 485.115 236.654 468.679 244.147 453.322 244.467 C 434.249 244.853 395.832 225.283 391.829 223.201 L 391.443 222.754 C 390.5 220.448 384.733 206.822 383.5 203.938 C 411.156 222.162 434.088 232.235 451.655 233.788 C 471.207 235.529 486.437 224.862 492.954 220.301 L 492.953 220.301 L 492.935 220.303 Z  M 449.458 195.001 C 444.604 195.001 440.684 192.375 440.684 189.156 C 440.684 185.907 444.604 183.295 449.458 183.295 C 454.311 183.295 458.243 185.907 458.243 189.156 C 458.239 192.375 454.308 195.001 449.458 195.001 Z  M 446.221 173.366 C 440.919 173.176 435.892 175.049 432.049 178.652 C 428.207 182.255 425.941 187.136 425.781 192.423 C 425.413 203.346 433.966 212.536 444.87 212.936 C 450.169 213.096 455.221 211.223 459.087 207.62 C 462.944 203.999 465.164 199.115 465.332 193.849 C 465.7 182.93 457.151 173.752 446.228 173.368 L 446.221 173.366 Z " fill="rgb(0,0,0)"/></g></svg>