<?xml version="1.0" encoding="UTF-8" standalone="no"?><!-- Generator: Gravit.io --><svg xmlns="http://www.w3.org/2000/svg" xmlns:xlink="http://www.w3.org/1999/xlink" style="isolation:isolate" viewBox="0 0 512.041 502.439" width="512.041pt" height="502.439pt"><defs><clipPath id="_clipPath_lcS7WJ7WS9f5fR3y8osPkn2sFOXH6ZNU"><rect width="512.041" height="502.439"/></clipPath></defs><g clip-path="url(#_clipPath_lcS7WJ7WS9f5fR3y8osPkn2sFOXH6ZNU)"><g><path d=" M 126.738 260.623 C 131.556 327.853 187.624 380.898 256.081 380.898 C 279.887 380.858 303.222 374.265 323.53 361.842 L 366.572 404.885 L 366.572 404.885 C 334.401 428.101 295.755 440.635 256.081 440.72 C 166.021 440.72 90.634 377.895 71.356 293.68 L 75 293.68 C 75.03 293.68 75.05 293.68 75.08 293.68 C 76.63 293.66 78.15 293.34 79.57 292.76 C 80.98 292.18 82.32 291.44 83.55 290.54 L 83.55 290.54 L 126.738 260.623 Z  M 126.449 254.739 C 126.418 253.57 126.403 252.397 126.403 251.219 C 126.409 248.649 126.491 246.084 126.649 243.528 L 103.007 259.79 L 79.981 215.399 C 79.243 213.923 77.656 213.184 75.22 213.184 L 70.497 213.184 C 67.926 225.633 66.601 238.373 66.581 251.219 C 66.581 264.045 67.855 276.573 70.284 288.684 L 74.999 288.684 C 76.696 288.684 78.578 287.946 80.645 286.47 L 80.645 286.47 L 80.645 286.47 L 126.449 254.739 Z  M 127.211 237.074 C 129.322 218.25 135.54 200.057 145.493 183.805 L 102.369 140.681 C 87.683 161.049 77.278 184.009 71.601 208.18 L 75.2 208.18 C 76.06 208.18 76.91 208.25 77.75 208.4 C 78.63 208.55 79.49 208.81 80.3 209.18 C 82.08 209.99 83.53 211.37 84.42 213.1 L 104.84 252.46 L 127.211 237.074 Z " fill-rule="evenodd" fill="rgb(0,0,0)"/><path d=" M 80.645 286.47 C 78.578 287.946 76.696 288.684 74.999 288.684 L 67.693 288.684 C 66.659 288.684 65.847 288.499 65.257 288.13 C 64.667 287.761 64.187 287.208 63.818 286.47 L 26.4 216.948 C 26.253 216.801 26.179 216.616 26.179 216.395 L 26.179 215.731 C 26.179 214.993 26.437 214.402 26.954 213.959 C 27.544 213.443 28.467 213.184 29.721 213.184 L 75.22 213.184 C 77.656 213.184 79.243 213.922 79.981 215.399 L 103.007 259.79 L 167.546 215.399 C 169.687 213.922 171.938 213.184 174.299 213.184 L 181.495 213.184 C 182.454 213.184 182.934 213.59 182.934 214.402 C 182.934 215.066 182.344 215.878 181.163 216.838 L 80.645 286.47 L 80.645 286.47 Z " fill="rgb(0,0,0)"/><path d=" M 181.056 288.684 C 177.218 288.684 173.823 288.093 170.871 286.913 C 167.919 285.658 165.447 283.96 163.454 281.82 C 161.461 279.68 159.948 277.171 158.915 274.292 C 157.882 271.34 157.365 268.167 157.365 264.772 C 157.365 260.418 158.103 256.137 159.579 251.93 C 161.055 247.724 163.085 243.702 165.668 239.864 C 168.325 236.026 171.425 232.484 174.967 229.236 C 178.583 225.989 182.495 223.185 186.702 220.823 C 190.982 218.461 195.484 216.616 200.207 215.288 C 204.931 213.886 209.765 213.184 214.709 213.184 L 268.954 213.184 C 272.865 213.184 276.297 213.775 279.249 214.956 C 282.275 216.137 284.784 217.797 286.777 219.937 C 288.77 222.004 290.282 224.476 291.316 227.354 C 292.349 230.233 292.866 233.369 292.866 236.764 C 292.866 241.118 292.091 245.436 290.541 249.716 C 289.065 253.923 286.998 257.945 284.341 261.783 C 281.685 265.621 278.548 269.2 274.932 272.521 C 271.315 275.768 267.367 278.61 263.086 281.045 C 258.806 283.407 254.304 285.289 249.581 286.691 C 244.857 288.02 240.097 288.684 235.3 288.684 L 181.056 288.684 L 181.056 288.684 Z  M 247.699 243.406 C 250.134 238.24 251.352 234.366 251.352 231.783 C 251.352 229.642 250.577 228.166 249.027 227.354 C 247.551 226.543 245.337 226.137 242.385 226.137 L 227.329 226.137 C 225.189 226.137 223.197 226.432 221.351 227.022 C 219.58 227.539 217.92 228.461 216.37 229.79 C 214.82 231.118 213.307 232.89 211.831 235.104 C 210.429 237.318 208.99 240.085 207.514 243.406 L 202.2 255.473 C 199.395 261.746 197.993 266.469 197.993 269.643 C 197.993 271.783 198.621 273.333 199.875 274.292 C 201.13 275.178 202.938 275.621 205.3 275.621 L 220.466 275.621 C 222.754 275.621 224.857 275.289 226.776 274.625 C 228.695 273.887 230.54 272.743 232.311 271.193 C 234.082 269.643 235.78 267.576 237.403 264.993 C 239.027 262.41 240.688 259.237 242.385 255.473 L 247.699 243.406 L 247.699 243.406 Z " fill="rgb(0,0,0)"/><path d=" M 285.083 288.684 C 283.755 288.684 283.091 288.241 283.091 287.355 C 283.091 286.913 283.202 286.359 283.423 285.695 L 314.53 216.063 C 315.416 214.144 316.818 213.184 318.737 213.184 L 356.819 213.184 C 358.221 213.184 358.922 213.664 358.922 214.624 C 358.922 215.066 358.775 215.546 358.479 216.063 L 327.483 285.695 C 326.597 287.687 325.195 288.684 323.276 288.684 L 285.083 288.684 L 285.083 288.684 Z " fill="rgb(0,0,0)"/><path d=" M 309.28 222.814 C 299.115 203.821 279.081 190.889 256.051 190.889 C 238.931 190.889 223.468 198.035 212.481 209.502 L 212.481 209.502 C 212.883 209.492 213.286 209.488 213.69 209.488 L 273.247 209.488 C 277.541 209.488 281.309 210.136 284.55 211.433 C 287.872 212.729 290.627 214.552 292.815 216.902 C 295.003 219.171 296.664 221.885 297.798 225.045 C 298.933 228.206 299.5 231.649 299.5 235.377 C 299.5 240.157 298.649 244.897 296.948 249.597 C 295.327 254.216 293.058 258.632 290.141 262.845 C 287.224 267.059 283.78 270.989 279.81 274.635 C 275.84 278.2 271.504 281.32 266.805 283.994 C 262.105 286.587 257.162 288.653 251.976 290.193 C 246.791 291.651 241.564 292.38 236.297 292.38 L 211.958 292.38 C 222.973 304.173 238.657 311.55 256.051 311.55 C 273.381 311.55 289.015 304.227 300.023 292.509 L 281.444 292.509 L 281.444 292.509 C 279.981 292.509 279.249 292.021 279.249 291.046 C 279.249 290.558 279.371 289.948 279.615 289.217 L 309.28 222.814 Z  M 249.91 242.669 L 249.91 242.669 Z " fill-rule="evenodd" fill="rgb(0,0,0)"/><path d=" M 339.513 288.684 C 338.184 288.684 337.52 288.241 337.52 287.355 C 337.52 286.913 337.631 286.359 337.852 285.695 L 368.96 216.063 C 369.845 214.144 371.248 213.184 373.167 213.184 L 462.172 213.184 C 466.009 213.184 469.404 213.775 472.356 214.956 C 475.308 216.137 477.781 217.797 479.773 219.937 C 481.766 222.004 483.279 224.476 484.312 227.354 C 485.345 230.233 485.862 233.369 485.862 236.764 C 485.862 241.266 485.087 245.694 483.537 250.049 C 481.987 254.329 479.847 258.388 477.116 262.226 C 474.46 266.064 471.286 269.606 467.596 272.853 C 463.98 276.101 460.031 278.905 455.751 281.267 C 451.544 283.555 447.116 285.363 442.467 286.691 C 437.817 288.02 433.167 288.684 428.518 288.684 L 339.513 288.684 L 339.513 288.684 Z  M 435.824 243.406 C 438.186 238.093 439.367 234.218 439.367 231.783 C 439.367 229.642 438.629 228.166 437.153 227.354 C 435.677 226.543 433.537 226.137 430.732 226.137 L 408.259 226.137 L 386.34 275.621 L 408.702 275.621 C 410.916 275.621 412.983 275.289 414.902 274.625 C 416.82 273.887 418.629 272.743 420.326 271.193 C 422.097 269.569 423.795 267.503 425.418 264.993 C 427.116 262.41 428.813 259.237 430.511 255.473 L 435.824 243.406 L 435.824 243.406 Z " fill="rgb(0,0,0)"/><path d=" M 378.984 209.739 C 361.684 158.462 313.194 121.541 256.081 121.541 C 232.275 121.581 208.94 128.174 188.632 140.597 L 145.59 97.554 C 177.761 74.338 216.408 61.804 256.081 61.72 L 256.081 61.72 C 346.49 61.719 422.112 125.032 441.027 209.739 L 378.984 209.739 Z  M 379.034 292.13 C 375.939 301.361 371.8 310.255 366.669 318.634 L 409.793 361.758 C 425.154 340.453 435.832 316.312 441.315 290.917 C 437.561 291.733 433.807 292.13 430.054 292.13 L 379.034 292.13 L 379.034 292.13 Z  M 384.026 277.874" fill-rule="evenodd" fill="rgb(0,0,0)"/></g></g></svg>