<?xml version="1.0" encoding="UTF-8" standalone="no"?><!-- Generator: Gravit.io --><svg xmlns="http://www.w3.org/2000/svg" xmlns:xlink="http://www.w3.org/1999/xlink" style="isolation:isolate" viewBox="0 0 51.5 53" width="51.5pt" height="53pt"><defs><clipPath id="_clipPath_ncPm21YEB6G9xMS59W7PDKiSQYo80PHB"><rect width="51.5" height="53"/></clipPath></defs><g clip-path="url(#_clipPath_ncPm21YEB6G9xMS59W7PDKiSQYo80PHB)"><path d=" M 41.226 42.8 C 43.841 41.291 47.182 42.185 48.692 44.8 C 50.201 47.416 49.307 50.757 46.691 52.266 C 44.076 53.776 40.735 52.882 39.226 50.266 C 37.716 47.651 38.611 44.31 41.226 42.8 L 41.226 42.8 Z  M 39.466 0.733 C 42.082 -0.776 45.422 0.119 46.932 2.733 C 48.441 5.349 47.547 8.69 44.931 10.199 C 42.316 11.709 38.975 10.815 37.466 8.199 C 35.956 5.585 36.851 2.243 39.466 0.733 L 39.466 0.733 Z  M 2.734 21.996 C 5.349 20.486 8.69 21.381 10.2 23.995 C 11.709 26.611 10.815 29.952 8.199 31.461 C 5.585 32.971 2.243 32.077 0.734 29.461 C -0.776 26.846 0.119 23.505 2.734 21.996 Z " fill="rgb(0,0,0)"/><path d=" M 9.791 20.613 C 10.761 21.232 11.567 22.077 12.142 23.074 C 14.088 26.446 12.999 30.733 9.722 32.778 C 10.2 34.416 10.873 35.991 11.726 37.469 C 13.527 40.588 15.5 42.773 18.352 44.561 L 22.027 38.197 C 20.253 37.035 19.21 35.765 18.077 33.803 C 14.211 27.106 16.506 18.544 23.202 14.678 L 19.535 8.326 C 14.65 11.147 11.308 15.609 9.791 20.613 L 9.791 20.613 Z  M 45.833 12.276 L 45.761 12.236 L 45.706 12.332 L 45.761 12.236 L 45.72 12.213 C 45.609 12.285 45.497 12.356 45.381 12.423 C 41.936 14.412 37.534 13.232 35.545 9.787 C 34.823 8.537 34.514 7.264 34.584 5.923 C 30.441 5.053 26.03 5.41 21.93 7.141 L 25.639 13.567 C 31.854 11.417 38.917 13.896 42.327 19.802 C 43.512 21.849 44.157 24.164 44.2 26.529 L 51.522 26.529 C 51.525 26.515 51.53 26.503 51.535 26.49 C 51.487 22.966 50.565 19.405 48.678 16.135 C 47.877 14.747 46.923 13.452 45.833 12.276 L 45.833 12.276 Z  M 24.307 39.581 L 20.662 45.895 C 25.595 48.429 31.214 48.874 36.673 47.13 C 36.754 44.728 38.036 42.421 40.271 41.131 C 42.225 40.003 44.487 39.894 46.442 40.64 C 49.221 37.379 50.921 33.374 51.397 29.196 L 43.995 29.196 C 43.308 33.142 40.943 36.767 37.202 38.927 C 33.022 41.341 28.367 41.495 24.333 39.536" fill="rgb(0,0,0)"/></g></svg>