<?xml version="1.0" encoding="UTF-8" standalone="no"?><!-- Generator: Gravit.io --><svg xmlns="http://www.w3.org/2000/svg" xmlns:xlink="http://www.w3.org/1999/xlink" style="isolation:isolate" viewBox="0 0 498 498" width="498pt" height="498pt"><defs><clipPath id="_clipPath_W8vRAgxvcEfNkwKmNwitRnBlCuIbsw1C"><rect width="498" height="498"/></clipPath></defs><g clip-path="url(#_clipPath_W8vRAgxvcEfNkwKmNwitRnBlCuIbsw1C)"><rect width="498" height="498" style="fill:rgb(0,0,0)" fill-opacity="0"/><path d=" M 496.839 182.592 L 496.839 182.592 L 496.839 182.592 C 483.667 133.435 361.921 123.282 225.135 159.933 C 88.349 196.585 -12.01 266.251 1.162 315.408 L 1.162 315.408 L 1.162 315.408 L 1.162 315.408 L 1.162 315.408 C -7.285 283.883 96.909 228.533 233.695 191.881 C 370.481 155.229 488.392 151.067 496.839 182.592 L 496.839 182.592 Z " fill="rgb(0,0,0)"/><path d=" M 315.408 1.162 L 315.408 1.162 L 315.408 1.162 C 266.251 -12.01 196.585 88.349 159.933 225.135 C 123.282 361.92 133.435 483.667 182.592 496.839 L 182.592 496.839 L 182.592 496.839 L 182.592 496.839 L 182.592 496.839 C 151.067 488.391 155.229 370.481 191.881 233.695 C 228.533 96.909 283.883 -7.285 315.408 1.162 L 315.408 1.162 Z " fill="rgb(0,0,0)"/><path d=" M 67.57 67.57 L 67.57 67.57 L 67.57 67.57 C 31.584 103.555 83.664 214.067 183.799 314.202 C 283.933 414.336 394.445 466.416 430.43 430.43 L 430.43 430.43 L 430.43 430.43 L 430.43 430.43 L 430.43 430.43 C 407.353 453.508 307.32 390.948 207.186 290.814 C 107.052 190.68 44.492 90.648 67.57 67.57 L 67.57 67.57 Z " fill="rgb(0,0,0)"/><ellipse vector-effect="non-scaling-stroke" cx="248.41928880419528" cy="249.5809122116397" rx="37.44447765419682" ry="37.44447573039298" fill="rgb(0,0,0)"/><ellipse vector-effect="non-scaling-stroke" cx="154.43660672352604" cy="80.19719499765043" rx="24.02333086050811" ry="24.023329626249307" fill="rgb(0,0,0)"/><path d=" M 133.289 61.63 C 104.111 53.013 80.802 54.338 67.57 67.57 L 67.57 67.57 L 67.57 67.57 L 67.57 67.57 C 76.71 58.43 97.92 62.723 126.435 77.474 C 126.995 71.426 129.489 65.941 133.289 61.63 Z  M 182.475 82.554 C 223.499 104.55 269.867 139.464 314.202 183.799 C 414.336 283.933 466.416 394.445 430.43 430.43 L 430.43 430.43 L 430.43 430.43 L 430.43 430.43 L 430.43 430.43 C 453.508 407.353 390.948 307.32 290.814 207.186 C 248.452 164.824 206.108 129.187 169.597 103.905 C 176.789 99.309 181.747 91.529 182.475 82.554 Z " fill-rule="evenodd" fill="rgb(0,0,0)"/><ellipse vector-effect="non-scaling-stroke" cx="447.09961244908055" cy="247.31542840337502" rx="24.02333086050811" ry="24.023329626249307" fill="rgb(0,0,0)"/><path d=" M 473.663 237.977 C 492.601 218.544 501.335 199.373 496.839 182.592 L 496.839 182.592 L 496.839 182.592 L 496.839 182.592 C 499.951 194.207 487.771 209.057 464.274 225.018 C 468.545 228.306 471.843 232.795 473.663 237.977 Z  M 432.008 271.07 C 391.958 296.948 336.333 321.061 272.866 338.067 C 136.08 374.719 14.333 364.566 1.162 315.408 L 1.162 315.408 L 1.162 315.408 L 1.162 315.408 L 1.162 315.408 C 9.609 346.933 127.519 342.771 264.305 306.119 C 324.52 289.985 378.419 270.226 419.142 250.472 C 420.09 259.138 424.994 266.615 432.008 271.07 Z " fill-rule="evenodd" fill="rgb(0,0,0)"/><ellipse vector-effect="non-scaling-stroke" cx="230.67471908248694" cy="465.83745884280773" rx="24.02333086050811" ry="24.02270081301492" fill="rgb(0,0,0)"/><path d=" M 255.946 453.417 C 287.383 413.119 317.782 348.571 338.067 272.866 C 374.719 136.08 364.566 14.333 315.408 1.162 L 315.408 1.162 L 315.408 1.162 L 315.408 1.162 C 346.933 9.609 342.771 127.519 306.119 264.305 C 287.164 335.046 263.208 397.069 240.133 439.312 C 247.053 441.783 252.727 446.888 255.946 453.417 Z  M 216.729 490.28 C 204.753 497.239 193.196 499.68 182.592 496.839 L 182.592 496.839 L 182.592 496.839 L 182.592 496.839 L 182.592 496.839 C 190.271 498.896 199.364 494.27 209.261 484.083 C 211.356 486.566 213.884 488.669 216.729 490.28 Z " fill-rule="evenodd" fill="rgb(0,0,0)"/><ellipse vector-effect="non-scaling-stroke" cx="230.6747190824869" cy="465.84965250752" rx="24.02333086050811" ry="24.023329626249335" fill="none"/></g></svg>