<?xml version="1.0" encoding="UTF-8" standalone="no"?><!-- Generator: Gravit.io --><svg xmlns="http://www.w3.org/2000/svg" xmlns:xlink="http://www.w3.org/1999/xlink" style="isolation:isolate" viewBox="0 0 512 512" width="512pt" height="512pt"><defs><clipPath id="_clipPath_hoqn6dgUqFvegLfO9ecm01lbP4tAJ2KR"><rect width="512" height="512"/></clipPath></defs><g clip-path="url(#_clipPath_hoqn6dgUqFvegLfO9ecm01lbP4tAJ2KR)"><circle vector-effect="non-scaling-stroke" cx="264.74818382181877" cy="470.32537727471384" r="24.055230125370088" fill="rgb(0,0,0)"/><path d=" M 210.497 243.808 C 217.226 218.694 243.079 203.768 268.192 210.497 C 293.306 217.226 308.232 243.079 301.503 268.192 C 294.774 293.306 268.921 308.232 243.808 301.503 C 218.694 294.774 203.768 268.921 210.497 243.808 Z " fill="rgb(0,0,0)"/><circle vector-effect="non-scaling-stroke" cx="153.7652719671771" cy="66.56506276271062" r="24.055230125370088" fill="rgb(0,0,0)"/><path d=" M 129.521 53.49 C 104.263 52.387 83.138 58.492 68.647 72.675 C 19.984 120.305 64.426 241.119 167.829 342.298 C 271.232 443.478 394.69 486.954 443.353 439.325 C 492.016 391.695 447.574 270.881 344.171 169.702 L 344.171 169.702 C 290.835 117.512 232.163 80.676 181.165 63.758 C 181.282 64.676 181.33 65.615 181.33 66.565 C 181.33 72.227 179.62 77.492 176.671 81.86 C 222.611 100.494 276.621 136.958 327.13 186.381 L 327.13 186.381 C 425.686 282.818 473.829 392.307 434.571 430.731 C 395.313 469.155 283.426 422.056 184.87 325.619 C 86.314 229.182 38.171 119.693 77.429 81.269 C 88.539 70.395 105.465 66.371 126.265 68.384 C 126.22 67.784 126.2 67.177 126.2 66.565 C 126.2 61.83 127.397 57.373 129.521 53.49 Z " fill-rule="evenodd" fill="rgb(0,0,0)"/><circle vector-effect="non-scaling-stroke" cx="472.5519154939228" cy="256.0000000000001" r="24.055230125370088" fill="rgb(0,0,0)"/><path d=" M 497.152 243.58 C 508.842 223.641 513.152 203.78 508.44 185.41 C 491.523 119.452 364.675 97.532 225.349 136.492 L 225.349 136.492 C 86.023 175.452 -13.357 260.632 3.56 326.59 C 20.477 392.548 147.325 414.468 286.651 375.508 C 361.707 354.52 425.171 320.118 465.108 282.535 C 458.84 280.789 453.475 276.873 449.881 271.642 C 410.845 303.13 350.808 332.813 280.727 352.41 C 147.932 389.543 29.04 376.491 15.393 323.281 C 1.746 270.072 98.478 196.724 231.273 159.59 L 231.273 159.59 C 364.068 122.457 482.96 135.509 496.607 188.719 C 500.084 202.275 496.397 217.138 486.769 232.377 C 491.195 235.055 494.813 238.939 497.152 243.58 Z " fill-rule="evenodd" fill="rgb(0,0,0)"/><path d=" M 288.165 455.788 C 321.975 416.525 352.451 356.88 371.21 286.87 C 407.862 150.08 385.996 25.192 322.41 8.154 C 258.824 -8.884 177.443 88.34 140.79 225.13 L 140.79 225.13 C 104.138 361.92 126.004 486.808 189.59 503.846 C 207.936 508.762 227.763 504.166 247.57 491.856 C 243.687 488.775 240.667 484.66 238.903 479.936 C 222.824 491.445 207.033 496.068 192.703 492.228 C 141.407 478.483 128.123 361.474 163.058 231.096 L 163.058 231.096 C 197.992 100.718 268.001 6.027 319.297 19.772 C 370.593 33.517 383.877 150.526 348.942 280.904 C 330.892 348.268 303.479 406.105 274.122 444.391 C 279.98 446.518 284.92 450.572 288.165 455.788 Z " fill-rule="evenodd" fill="rgb(0,0,0)"/></g></svg>