<?xml version="1.0" encoding="UTF-8" standalone="no"?><!-- Generator: Gravit.io --><svg xmlns="http://www.w3.org/2000/svg" xmlns:xlink="http://www.w3.org/1999/xlink" style="isolation:isolate" viewBox="0 0 128 128" width="128pt" height="128pt"><defs><clipPath id="_clipPath_Y3JUk5UXpgpNqiFLohNPGkz1SF34IXIs"><rect width="128" height="128"/></clipPath></defs><g clip-path="url(#_clipPath_Y3JUk5UXpgpNqiFLohNPGkz1SF34IXIs)"><rect width="128" height="128" style="fill:rgb(40,40,40)" fill-opacity="0"/><linearGradient id="_lgradient_40" x1="0.006471484062799626" y1="0.7662564051931975" x2="0.9920480974408094" y2="0.03653245268257199" gradientTransform="matrix(127.701,0,0,45.544,0.299,46.852)" gradientUnits="userSpaceOnUse"><stop offset="0%" stop-opacity="1" style="stop-color:rgb(128,89,165)"/><stop offset="100%" stop-opacity="1" style="stop-color:rgb(63,46,79)"/></linearGradient><path d=" M 127.701 46.852 L 127.701 46.852 L 127.701 46.852 C 131.087 59.465 105.292 77.341 70.134 86.746 C 34.976 96.15 3.684 93.545 0.299 80.932 L 0.299 80.932 L 0.299 80.932 L 0.299 80.932 L 0.299 80.932 C 2.47 89.021 32.776 87.953 67.934 78.548 C 103.092 69.144 129.872 54.941 127.701 46.852 L 127.701 46.852 Z " fill="url(#_lgradient_40)"/><linearGradient id="_lgradient_41" x1="0.759112000511427" y1="0.0006032634359573463" x2="-0.0022592076177072595" y2="0.99262714790298" gradientTransform="matrix(45.621,0,0,127.486,46.931,0.298)" gradientUnits="userSpaceOnUse"><stop offset="0%" stop-opacity="1" style="stop-color:rgb(130,90,167)"/><stop offset="100%" stop-opacity="1" style="stop-color:rgb(63,46,78)"/></linearGradient><path d=" M 81.069 0.298 L 81.069 0.298 L 81.069 0.298 C 93.703 3.678 96.313 34.917 86.893 70.015 C 77.472 105.114 59.566 130.865 46.931 127.486 L 46.931 127.486 L 46.931 127.486 L 46.931 127.486 L 46.931 127.486 C 55.034 129.653 69.261 102.917 78.681 67.819 C 88.102 32.721 89.171 2.465 81.069 0.298 L 81.069 0.298 Z " fill="url(#_lgradient_41)"/><linearGradient id="_lgradient_42" x1="0.010475549850402707" y1="0.021723120403743912" x2="0.9743446055727906" y2="0.9964978704323012" gradientTransform="matrix(96.194,0,0,96.032,17.367,14.414)" gradientUnits="userSpaceOnUse"><stop offset="0%" stop-opacity="1" style="stop-color:rgb(131,91,168)"/><stop offset="100%" stop-opacity="1" style="stop-color:rgb(60,44,74)"/></linearGradient><path d=" M 17.367 17.338 L 17.367 17.338 L 17.367 17.338 C 26.616 8.104 55.021 21.468 80.759 47.162 C 106.496 72.855 119.882 101.212 110.633 110.446 L 110.633 110.446 L 110.633 110.446 L 110.633 110.446 L 110.633 110.446 C 116.564 104.524 100.485 78.856 74.747 53.163 C 49.01 27.469 23.299 11.416 17.367 17.338 L 17.367 17.338 Z " fill="url(#_lgradient_42)"/><path d=" M 127.701 47 C 124.316 34.386 93.024 32.147 57.866 41.552 C 22.708 50.957 -3.087 68.387 0.299 81 L 0.299 81 C -1.873 72.911 24.908 59.154 60.066 49.75 C 95.224 40.345 125.53 38.911 127.701 47 L 127.701 47 Z " fill="rgb(93,61,115)"/><linearGradient id="_lgradient_43" x1="0.2345562463373723" y1="0.4395403209899372" x2="1.0040043625733686" y2="0.18939812175280057" gradientTransform="matrix(127.701,0,0,45.544,0,35.388)" gradientUnits="userSpaceOnUse"><stop offset="0%" stop-opacity="1" style="stop-color:rgb(188,47,193)"/><stop offset="100%" stop-opacity="1" style="stop-color:rgb(109,33,156)"/></linearGradient><path d=" M 127.701 46.852 L 127.701 46.852 L 127.701 46.852 C 124.316 34.238 93.024 31.633 57.866 41.038 C 22.708 50.442 -3.087 68.318 0.299 80.932 L 0.299 80.932 L 0.299 80.932 L 0.299 80.932 L 0.299 80.932 C -1.873 72.843 24.908 58.64 60.066 49.235 C 95.224 39.831 125.53 38.763 127.701 46.852 L 127.701 46.852 Z " fill="url(#_lgradient_43)"/><path d=" M 81 0.298 C 68.365 -3.082 50.528 23.184 41.107 58.282 C 31.687 93.381 34.365 124.106 47 127.486 L 47 127.486 C 38.897 125.318 39.898 95.577 49.319 60.479 C 58.739 25.381 72.897 -1.869 81 0.298 L 81 0.298 Z " fill="rgb(93,61,115)"/><linearGradient id="_lgradient_44" x1="-0.12660783978905055" y1="0.4246802053575139" x2="0.24484981260232264" y2="1.0033008893499684" gradientTransform="matrix(45.621,0,0,127.486,35.448,0)" gradientUnits="userSpaceOnUse"><stop offset="0%" stop-opacity="1" style="stop-color:rgb(188,47,193)"/><stop offset="100%" stop-opacity="1" style="stop-color:rgb(106,32,154)"/></linearGradient><path d=" M 81.069 0.298 L 81.069 0.298 L 81.069 0.298 C 68.434 -3.082 50.528 22.67 41.107 57.768 C 31.687 92.867 34.296 124.106 46.931 127.486 L 46.931 127.486 L 46.931 127.486 L 46.931 127.486 L 46.931 127.486 C 38.828 125.318 39.898 95.063 49.319 59.965 C 58.739 24.866 72.966 -1.869 81.069 0.298 L 81.069 0.298 Z " fill="url(#_lgradient_44)"/><path d=" M 17.367 17.852 L 17.367 17.852 L 17.367 17.852 C 8.118 27.086 21.504 55.443 47.241 81.137 C 72.979 106.83 101.383 120.194 110.633 110.96 L 110.633 110.96 L 110.633 110.96 L 110.633 110.96 L 110.633 110.96 C 104.701 116.882 78.99 100.829 53.253 75.135 C 27.515 49.442 11.436 23.774 17.367 17.852 L 17.367 17.852 Z " fill="rgb(93,61,115)"/><linearGradient id="_lgradient_45" x1="0.134973413691664" y1="0.35541064315916127" x2="1.0158049147393426" y2="0.9752606898929639" gradientTransform="matrix(96.194,0,0,96.032,14.438,17.338)" gradientUnits="userSpaceOnUse"><stop offset="0%" stop-opacity="1" style="stop-color:rgb(188,47,193)"/><stop offset="100%" stop-opacity="1" style="stop-color:rgb(103,32,153)"/></linearGradient><path d=" M 17.367 17.338 L 17.367 17.338 L 17.367 17.338 C 8.118 26.572 21.504 54.928 47.241 80.622 C 72.979 106.316 101.383 119.679 110.633 110.446 L 110.633 110.446 L 110.633 110.446 L 110.633 110.446 L 110.633 110.446 C 104.701 116.367 78.99 100.315 53.253 74.621 C 27.515 48.927 11.436 23.259 17.367 17.338 L 17.367 17.338 Z " fill="url(#_lgradient_45)"/><linearGradient id="_lgradient_46" x1="-0.001961014819558682" y1="0.045344384147528345" x2="0.8868419455160226" y2="0.8117437219223178" gradientTransform="matrix(19.249,0,0,19.216,54.226,54.433)" gradientUnits="userSpaceOnUse"><stop offset="0%" stop-opacity="1" style="stop-color:rgb(217,94,221)"/><stop offset="100%" stop-opacity="1" style="stop-color:rgb(167,58,191)"/></linearGradient><path d=" M 54.226 64.041 C 54.226 58.738 58.539 54.433 63.851 54.433 C 69.162 54.433 73.475 58.738 73.475 64.041 C 73.475 69.344 69.162 73.649 63.851 73.649 C 58.539 73.649 54.226 69.344 54.226 64.041 Z " fill="url(#_lgradient_46)"/><linearGradient id="_lgradient_47" x1="0.1464456236835403" y1="0.1464511906467365" x2="0.8535576869806967" y2="0.8511517106495752" gradientTransform="matrix(12.349,0,0,12.328,33.52,14.414)" gradientUnits="userSpaceOnUse"><stop offset="1.25%" stop-opacity="1" style="stop-color:rgb(255,92,209)"/><stop offset="48.75%" stop-opacity="1" style="stop-color:rgb(238,8,188)"/><stop offset="100%" stop-opacity="1" style="stop-color:rgb(162,4,157)"/></linearGradient><path d=" M 33.52 20.578 C 33.52 17.176 36.287 14.414 39.695 14.414 C 43.102 14.414 45.869 17.176 45.869 20.578 C 45.869 23.98 43.102 26.742 39.695 26.742 C 36.287 26.742 33.52 23.98 33.52 20.578 Z " fill="url(#_lgradient_47)"/><linearGradient id="_lgradient_48" x1="0.1464456236835403" y1="0.1464511906467365" x2="0.8535576869806967" y2="0.8511517106495752" gradientTransform="matrix(12.349,0,0,12.328,108.742,57.295)" gradientUnits="userSpaceOnUse"><stop offset="1.25%" stop-opacity="1" style="stop-color:rgb(255,92,209)"/><stop offset="48.75%" stop-opacity="1" style="stop-color:rgb(238,8,188)"/><stop offset="100%" stop-opacity="1" style="stop-color:rgb(162,4,157)"/></linearGradient><path d=" M 108.742 63.459 C 108.742 60.057 111.509 57.295 114.917 57.295 C 118.325 57.295 121.092 60.057 121.092 63.459 C 121.092 66.862 118.325 69.624 114.917 69.624 C 111.509 69.624 108.742 66.862 108.742 63.459 Z " fill="url(#_lgradient_48)"/><linearGradient id="_lgradient_49" x1="0.1464456236835403" y1="0.1464511906467365" x2="0.8535576869806967" y2="0.8511517106495752" gradientTransform="matrix(12.349,0,0,12.328,53.115,113.37)" gradientUnits="userSpaceOnUse"><stop offset="1.25%" stop-opacity="1" style="stop-color:rgb(255,92,209)"/><stop offset="48.75%" stop-opacity="1" style="stop-color:rgb(238,8,188)"/><stop offset="100%" stop-opacity="1" style="stop-color:rgb(162,4,157)"/></linearGradient><path d=" M 53.115 119.534 C 53.115 116.132 55.882 113.37 59.29 113.37 C 62.698 113.37 65.464 116.132 65.464 119.534 C 65.464 122.936 62.698 125.698 59.29 125.698 C 55.882 125.698 53.115 122.936 53.115 119.534 Z " fill="url(#_lgradient_49)"/><path d=" M 53.115 119.534 C 53.115 116.132 55.882 113.37 59.29 113.37 C 62.698 113.37 65.464 116.132 65.464 119.534 C 65.464 122.936 62.698 125.698 59.29 125.698 C 55.882 125.698 53.115 122.936 53.115 119.534 Z " fill="none"/></g></svg>