<?xml version="1.0" encoding="UTF-8"?>
<svg height="128px" viewBox="668 424 497.999 498" width="128px" xmlns="http://www.w3.org/2000/svg" xmlns:xlink="http://www.w3.org/1999/xlink">
  <defs>
    <clipPath id="_clipPath_cVFDvnFBdYj2OHAbaWVI0tvjqNkNnOJZ">
      <rect x="668" y="424" width="497.999" height="498"/>
    </clipPath>
  </defs>
    <linearGradient id="_lgradient_0" x1="0.024016897825481366" y1="0.9991888638940989" x2="1.0216807455892465" y2="0.7323169999530785" gradientTransform="matrix(496.838,0,0,177.194,669.162,606.283)" gradientUnits="userSpaceOnUse">
      <stop offset="0" stop-opacity="1" style="stop-color:rgb(98,0,181)"/>
      <stop offset="1" stop-opacity="1" style="stop-color:rgb(62,20,74)"/>
    </linearGradient>
    <path d=" M 1164.838 606.283 L 1164.838 606.283 L 1164.838 606.283 C 1178.01 655.358 1077.651 724.906 940.865 761.496 C 804.08 798.085 682.333 787.949 669.162 738.875 L 669.162 738.875 L 669.162 738.875 L 669.162 738.875 L 669.162 738.875 C 677.609 770.347 795.519 766.191 932.305 729.602 C 1069.091 693.012 1173.285 637.755 1164.838 606.283 L 1164.838 606.283 Z " fill="url(#_lgradient_0)"/>
    <linearGradient id="_lgradient_1" x1="0.25090217675966153" y1="1.0216792837783273" x2="0.5741851719940123" y2="-0.18279181969392644" gradientTransform="matrix(177.493,0,0,495.999,850.592,425.16)" gradientUnits="userSpaceOnUse">
      <stop offset="0" stop-opacity="1" style="stop-color:rgb(98,0,181)"/>
      <stop offset="1" stop-opacity="1" style="stop-color:rgb(62,20,74)"/>
    </linearGradient>
    <path d=" M 983.408 425.16 L 983.408 425.16 L 983.408 425.16 C 1032.565 438.309 1042.719 559.85 1006.067 696.404 C 969.415 832.959 899.749 933.148 850.592 919.999 L 850.592 919.999 L 850.592 919.999 L 850.592 919.999 L 850.592 919.999 C 882.117 928.432 937.467 824.413 974.119 687.858 C 1010.771 551.304 1014.933 433.592 983.408 425.16 L 983.408 425.16 Z " fill="url(#_lgradient_1)"/>
    <linearGradient id="_lgradient_2" x1="1.0566588471015927" y1="0.9128923086655534" x2="0.08710613288165436" y2="-0.05501981765287156" gradientTransform="matrix(374.256,0,0,373.624,735.57,480.079)" gradientUnits="userSpaceOnUse">
      <stop offset="0" stop-opacity="1" style="stop-color:rgb(98,0,181)"/>
      <stop offset="1" stop-opacity="1" style="stop-color:rgb(62,20,74)"/>
    </linearGradient>
    <path d=" M 735.57 491.456 L 735.57 491.456 L 735.57 491.456 C 771.555 455.531 882.067 507.523 982.202 607.488 C 1082.336 707.453 1134.416 817.778 1098.43 853.703 L 1098.43 853.703 L 1098.43 853.703 L 1098.43 853.703 L 1098.43 853.703 C 1121.508 830.664 1058.948 730.801 958.814 630.836 C 858.68 530.871 758.648 468.417 735.57 491.456 L 735.57 491.456 Z " fill="url(#_lgradient_2)"/>
    <path d=" M 1164.838 608.285 L 1164.838 608.285 L 1164.838 608.285 C 1151.667 559.21 1029.92 549.074 893.135 585.664 C 756.349 622.254 655.99 691.802 669.162 740.876 L 669.162 740.876 L 669.162 740.876 L 669.162 740.876 L 669.162 740.876 C 660.715 709.405 764.909 654.148 901.695 617.558 C 1038.481 580.968 1156.391 576.813 1164.838 608.285 L 1164.838 608.285 Z " fill="rgb(72,4,70)"/>
    <linearGradient id="_lgradient_3" x1="-0.021678732859489527" y1="0.7490991739028776" x2="0.9759851149042756" y2="0.4822273099618572" gradientTransform="matrix(496.838,0,0,177.194,668,561.681)" gradientUnits="userSpaceOnUse">
      <stop offset="0" stop-opacity="1" style="stop-color:rgb(255,0,247)"/>
      <stop offset="1" stop-opacity="1" style="stop-color:rgb(121,0,191)"/>
    </linearGradient>
    <path d=" M 1164.838 606.283 L 1164.838 606.283 L 1164.838 606.283 C 1151.667 557.209 1029.92 547.073 893.135 583.663 C 756.349 620.253 655.99 689.801 669.162 738.875 L 669.162 738.875 L 669.162 738.875 L 669.162 738.875 L 669.162 738.875 C 660.715 707.404 764.909 652.146 901.695 615.557 C 1038.481 578.967 1156.391 574.812 1164.838 606.283 L 1164.838 606.283 Z " fill="url(#_lgradient_3)"/>
    <path d=" M 983.408 427.161 L 983.408 427.161 L 983.408 427.161 C 934.251 414.011 864.585 514.201 827.933 650.755 C 791.281 787.31 801.435 908.851 850.592 922 L 850.592 922 L 850.592 922 L 850.592 922 L 850.592 922 C 819.067 913.567 823.229 795.856 859.881 659.301 C 896.533 522.747 951.883 418.728 983.408 427.161 L 983.408 427.161 Z " fill="rgb(72,4,70)"/>
    <linearGradient id="_lgradient_4" x1="0.000811173672908061" y1="0.9759828029996626" x2="0.3240941032513587" y2="-0.2284880558552259" gradientTransform="matrix(177.493,0,0,495.999,805.915,424)" gradientUnits="userSpaceOnUse">
      <stop offset="0" stop-opacity="1" style="stop-color:rgb(255,0,247)"/>
      <stop offset="1" stop-opacity="1" style="stop-color:rgb(121,0,191)"/>
    </linearGradient>
    <path d=" M 983.408 425.16 L 983.408 425.16 L 983.408 425.16 C 934.251 412.01 864.585 512.2 827.933 648.754 C 791.281 785.309 801.435 906.849 850.592 919.999 L 850.592 919.999 L 850.592 919.999 L 850.592 919.999 L 850.592 919.999 C 819.067 911.566 823.229 793.855 859.881 657.3 C 896.533 520.746 951.883 416.727 983.408 425.16 L 983.408 425.16 Z " fill="url(#_lgradient_4)"/>
    <path d=" M 735.57 493.457 L 735.57 493.457 L 735.57 493.457 C 699.584 529.382 751.664 639.707 851.798 739.672 C 951.933 839.637 1062.445 891.629 1098.43 855.704 L 1098.43 855.704 L 1098.43 855.704 L 1098.43 855.704 L 1098.43 855.704 C 1075.352 878.743 975.32 816.289 875.186 716.324 C 775.052 616.359 712.492 516.495 735.57 493.457 L 735.57 493.457 Z " fill="rgb(72,4,70)"/>
    <linearGradient id="_lgradient_5" x1="0.9128911951510792" y1="1.0566580089768032" x2="-0.05666151906885897" y2="0.08874588265837835" gradientTransform="matrix(374.256,0,0,373.624,724.174,491.456)" gradientUnits="userSpaceOnUse">
      <stop offset="0" stop-opacity="1" style="stop-color:rgb(255,0,247)"/>
      <stop offset="1" stop-opacity="1" style="stop-color:rgb(162,0,255)"/>
    </linearGradient>
    <path d=" M 735.57 491.456 L 735.57 491.456 L 735.57 491.456 C 699.584 527.38 751.664 637.706 851.798 737.671 C 951.933 837.636 1062.445 889.628 1098.43 853.703 L 1098.43 853.703 L 1098.43 853.703 L 1098.43 853.703 L 1098.43 853.703 C 1075.352 876.742 975.32 814.288 875.186 714.323 C 775.052 614.358 712.492 514.494 735.57 491.456 L 735.57 491.456 Z " fill="url(#_lgradient_5)"/>
    <linearGradient id="_lgradient_6" x1="0.1464504910980815" y1="0.14644712711532204" x2="0.8535579978941739" y2="0.8523554904676102" gradientTransform="matrix(74.889,0,0,74.762,878.975,635.778)" gradientUnits="userSpaceOnUse">
      <stop offset="0.0125" stop-opacity="1" style="stop-color:rgb(255,92,209)"/>
      <stop offset="0.4875" stop-opacity="1" style="stop-color:rgb(238,8,188)"/>
      <stop offset="1" stop-opacity="1" style="stop-color:rgb(162,4,157)"/>
    </linearGradient>
    <path d=" M 878.975 673.159 C 878.975 652.528 895.753 635.778 916.419 635.778 C 937.085 635.778 953.864 652.528 953.864 673.159 C 953.864 693.79 937.085 710.54 916.419 710.54 C 895.753 710.54 878.975 693.79 878.975 673.159 Z " fill="url(#_lgradient_6)"/>
    <linearGradient id="_lgradient_7" x1="0.14644312730913" y1="0.14644675859509348" x2="0.8535551906062828" y2="0.8523520204438657" gradientTransform="matrix(48.047,0,0,47.965,798.413,480.079)" gradientUnits="userSpaceOnUse">
      <stop offset="0.0125" stop-opacity="1" style="stop-color:rgb(255,92,209)"/>
      <stop offset="0.4875" stop-opacity="1" style="stop-color:rgb(238,8,188)"/>
      <stop offset="1" stop-opacity="1" style="stop-color:rgb(162,4,157)"/>
    </linearGradient>
    <path d=" M 798.413 504.062 C 798.413 490.825 809.178 480.079 822.437 480.079 C 835.695 480.079 846.46 490.825 846.46 504.062 C 846.46 517.298 835.695 528.044 822.437 528.044 C 809.178 528.044 798.413 517.298 798.413 504.062 Z " fill="url(#_lgradient_7)"/>
    <linearGradient id="_lgradient_8" x1="0.14644562368354208" y1="0.1464511906467374" x2="0.8535576869806967" y2="0.8523564524955102" gradientTransform="matrix(48.047,0,0,47.965,1091.076,646.915)" gradientUnits="userSpaceOnUse">
      <stop offset="0.0125" stop-opacity="1" style="stop-color:rgb(255,92,209)"/>
      <stop offset="0.4875" stop-opacity="1" style="stop-color:rgb(238,8,188)"/>
      <stop offset="1" stop-opacity="1" style="stop-color:rgb(162,4,157)"/>
    </linearGradient>
    <path d=" M 1091.076 670.897 C 1091.076 657.661 1101.841 646.915 1115.099 646.915 C 1128.358 646.915 1139.123 657.661 1139.123 670.897 C 1139.123 684.134 1128.358 694.88 1115.099 694.88 C 1101.841 694.88 1091.076 684.134 1091.076 670.897 Z " fill="url(#_lgradient_8)"/>
    <linearGradient id="_lgradient_9" x1="0.14644147011284403" y1="0.1464536901159974" x2="0.8535535334099977" y2="0.8523589519647705" gradientTransform="matrix(48.047,0,0,47.965,874.651,865.08)" gradientUnits="userSpaceOnUse">
      <stop offset="0.0125" stop-opacity="1" style="stop-color:rgb(255,92,209)"/>
      <stop offset="0.4875" stop-opacity="1" style="stop-color:rgb(238,8,188)"/>
      <stop offset="1" stop-opacity="1" style="stop-color:rgb(162,4,157)"/>
    </linearGradient>
    <path d=" M 874.651 889.062 C 874.651 875.826 885.416 865.08 898.675 865.08 C 911.933 865.08 922.698 875.826 922.698 889.062 C 922.698 902.299 911.933 913.045 898.675 913.045 C 885.416 913.045 874.651 902.299 874.651 889.062 Z " fill="url(#_lgradient_9)"/>
    <path d=" M 874.651 889.062 C 874.651 875.826 885.416 865.08 898.675 865.08 C 911.933 865.08 922.698 875.826 922.698 889.062 C 922.698 902.299 911.933 913.045 898.675 913.045 C 885.416 913.045 874.651 902.299 874.651 889.062 Z " fill="none"/>
</svg>
