<?xml version="1.0" encoding="UTF-8" standalone="no"?><!-- Generator: Gravit.io --><svg xmlns="http://www.w3.org/2000/svg" xmlns:xlink="http://www.w3.org/1999/xlink" style="isolation:isolate" viewBox="0 0 512 512" width="512pt" height="512pt"><defs><clipPath id="_clipPath_J7cae2L3bBxHa6kJAMHg46qjvU0e4QMe"><rect width="512" height="512"/></clipPath></defs><g clip-path="url(#_clipPath_J7cae2L3bBxHa6kJAMHg46qjvU0e4QMe)"><path d=" M 345.855 171.372 C 449.258 272.552 493.7 393.366 445.037 440.995 C 396.374 488.625 272.916 445.149 169.513 343.969 C 66.109 242.79 21.668 121.976 70.33 74.346 C 118.993 26.717 242.452 70.193 345.855 171.372 Z  M 328.813 188.052 C 427.369 284.489 475.512 393.978 436.255 432.402 C 396.997 470.826 285.11 423.726 186.554 327.29 C 87.998 230.853 39.855 121.363 79.113 82.94 C 118.37 44.516 230.257 91.615 328.813 188.052 Z " fill-rule="evenodd" fill="rgb(44,21,72)"/><path d=" M 227.033 138.163 C 366.358 99.203 493.207 121.122 510.124 187.08 C 527.041 253.039 427.66 338.219 288.335 377.178 C 149.009 416.138 22.16 394.219 5.243 328.261 C -11.673 262.303 87.707 177.123 227.033 138.163 Z  M 232.957 161.261 C 365.751 124.128 484.644 137.179 498.291 190.389 C 511.938 243.599 415.205 316.947 282.411 354.08 C 149.616 391.214 30.724 378.162 17.077 324.952 C 3.429 271.742 100.162 198.395 232.957 161.261 Z " fill-rule="evenodd" fill="rgb(44,21,72)"/><path d=" M 142.474 226.8 C 179.127 90.01 260.508 -7.213 324.094 9.825 C 387.68 26.863 409.546 151.751 372.893 288.541 C 336.241 425.331 254.859 522.555 191.274 505.517 C 127.688 488.479 105.821 363.59 142.474 226.8 Z  M 164.741 232.767 C 199.676 102.389 269.685 7.698 320.981 21.443 C 372.277 35.187 385.561 152.197 350.626 282.575 C 315.691 412.953 245.683 507.644 194.387 493.899 C 143.09 480.154 129.807 363.145 164.741 232.767 Z " fill-rule="evenodd" fill="rgb(44,21,72)"/><linearGradient id="_lgradient_0" x1="0" y1="0.5" x2="1" y2="0.5" gradientTransform="matrix(373.039,99.956,-142.708,532.593,139.151,-61.945)" gradientUnits="userSpaceOnUse"><stop offset="0%" stop-opacity="1" style="stop-color:rgb(64,0,142)"/><stop offset="100%" stop-opacity="1" style="stop-color:rgb(162,0,255)"/></linearGradient><path d=" M 139.107 223.459 C 175.759 86.669 257.141 -10.555 320.726 6.483 C 384.312 23.521 406.179 148.41 369.526 285.2 C 332.873 421.99 251.492 519.213 187.906 502.175 C 124.32 485.137 102.454 360.249 139.107 223.459 Z  M 161.374 229.425 C 196.309 99.047 266.317 4.356 317.613 18.101 C 368.91 31.846 382.193 148.855 347.259 279.233 C 312.324 409.611 242.315 504.302 191.019 490.557 C 139.723 476.813 126.439 359.803 161.374 229.425 Z " fill-rule="evenodd" fill="url(#_lgradient_0)"/><linearGradient id="_lgradient_1" x1="0" y1="0.5" x2="1" y2="0.5" gradientTransform="matrix(100.471,391.733,-541.028,151.289,474.595,-17.182)" gradientUnits="userSpaceOnUse"><stop offset="0%" stop-opacity="1" style="stop-color:rgb(64,0,142)"/><stop offset="100%" stop-opacity="1" style="stop-color:rgb(162,0,255)"/></linearGradient><path d=" M 223.665 134.822 C 362.991 95.862 489.84 117.781 506.757 183.739 C 523.673 249.697 424.293 334.877 284.967 373.837 C 145.642 412.797 18.793 390.878 1.876 324.92 C -15.041 258.961 84.34 173.781 223.665 134.822 Z  M 229.589 157.92 C 362.384 120.786 481.276 133.838 494.923 187.048 C 508.571 240.258 411.838 313.605 279.043 350.739 C 146.249 387.872 27.356 374.821 13.709 321.611 C 0.062 268.401 96.795 195.053 229.589 157.92 Z " fill-rule="evenodd" fill="url(#_lgradient_1)"/><linearGradient id="_lgradient_2" x1="0" y1="0.5" x2="1" y2="0.5" gradientTransform="matrix(-414.128,405.333,-414.184,-405.278,668.473,254.302)" gradientUnits="userSpaceOnUse"><stop offset="0%" stop-opacity="1" style="stop-color:rgb(64,0,142)"/><stop offset="100%" stop-opacity="1" style="stop-color:rgb(162,0,255)"/></linearGradient><path d=" M 342.487 168.031 C 445.891 269.21 490.332 390.024 441.67 437.654 C 393.007 485.283 269.548 441.807 166.145 340.628 C 62.742 239.448 18.3 118.634 66.963 71.005 C 115.626 23.375 239.084 66.851 342.487 168.031 Z  M 325.446 184.71 C 424.002 281.147 472.145 390.637 432.887 429.06 C 393.63 467.484 281.743 420.385 183.187 323.948 C 84.631 227.511 36.488 118.022 75.745 79.598 C 115.003 41.174 226.89 88.274 325.446 184.71 Z " fill-rule="evenodd" fill="url(#_lgradient_2)"/><circle vector-effect="non-scaling-stroke" cx="263.06450737752965" cy="468.65459647092246" r="24.055230125370088" fill="rgb(119,10,119)"/><circle vector-effect="non-scaling-stroke" cx="473.02057142292944" cy="256.4815515695048" r="24.055230125370088" fill="rgb(119,10,119)"/><circle vector-effect="non-scaling-stroke" cx="154.23392789618424" cy="67.0466143322154" r="24.055230125370088" fill="rgb(119,10,119)"/><path d=" M 210.966 244.289 C 217.695 219.175 243.547 204.249 268.661 210.979 C 293.775 217.708 308.701 243.56 301.972 268.674 C 295.242 293.788 269.39 308.714 244.276 301.985 C 219.162 295.255 204.236 269.403 210.966 244.289 Z " fill="rgb(119,10,119)"/><linearGradient id="_lgradient_3" x1="1" y1="0.4999999999999999" x2="0" y2="0.5" gradientTransform="matrix(91.006,24.385,-24.385,91.006,221.006,196.634)" gradientUnits="userSpaceOnUse"><stop offset="0%" stop-opacity="1" style="stop-color:rgb(255,0,136)"/><stop offset="100%" stop-opacity="1" style="stop-color:rgb(255,15,195)"/><stop offset="100%" stop-opacity="1" style="stop-color:rgb(189,12,145)"/></linearGradient><path d=" M 208.813 242.137 C 215.543 217.023 241.395 202.097 266.509 208.826 C 291.623 215.555 306.549 241.408 299.819 266.522 C 293.09 291.635 267.238 306.561 242.124 299.832 C 217.01 293.103 202.084 267.251 208.813 242.137 Z " fill="url(#_lgradient_3)"/><linearGradient id="_lgradient_4" x1="1" y1="0.4999999999999999" x2="0" y2="0.5" gradientTransform="matrix(48.11,0,0,48.11,128.026,40.839)" gradientUnits="userSpaceOnUse"><stop offset="0%" stop-opacity="1" style="stop-color:rgb(255,0,136)"/><stop offset="100%" stop-opacity="1" style="stop-color:rgb(255,15,195)"/><stop offset="100%" stop-opacity="1" style="stop-color:rgb(189,12,145)"/></linearGradient><circle vector-effect="non-scaling-stroke" cx="152.081595522888" cy="64.89428195891918" r="24.055230125370088" fill="url(#_lgradient_4)"/><linearGradient id="_lgradient_5" x1="1" y1="0.4999999999999999" x2="0" y2="0.5" gradientTransform="matrix(48.11,0,0,48.11,446.813,230.274)" gradientUnits="userSpaceOnUse"><stop offset="0%" stop-opacity="1" style="stop-color:rgb(255,0,136)"/><stop offset="100%" stop-opacity="1" style="stop-color:rgb(255,15,195)"/><stop offset="100%" stop-opacity="1" style="stop-color:rgb(189,12,145)"/></linearGradient><circle vector-effect="non-scaling-stroke" cx="470.8682390496337" cy="254.32921919620867" r="24.055230125370088" fill="url(#_lgradient_5)"/><linearGradient id="_lgradient_6" x1="1" y1="0.4999999999999999" x2="0" y2="0.5" gradientTransform="matrix(48.11,0,0,48.11,236.857,442.447)" gradientUnits="userSpaceOnUse"><stop offset="0%" stop-opacity="1" style="stop-color:rgb(255,0,136)"/><stop offset="100%" stop-opacity="1" style="stop-color:rgb(255,15,195)"/><stop offset="100%" stop-opacity="1" style="stop-color:rgb(189,12,145)"/></linearGradient><circle vector-effect="non-scaling-stroke" cx="260.91217500423346" cy="466.50226409762655" r="24.055230125370088" fill="url(#_lgradient_6)"/></g></svg>