<?xml version="1.0" encoding="UTF-8"?>
<svg height="128px" viewBox="0 0 128 128" width="128px" xmlns="http://www.w3.org/2000/svg" xmlns:xlink="http://www.w3.org/1999/xlink">
    <linearGradient id="a" gradientUnits="userSpaceOnUse">
        <stop offset="0" stop-color="#3584e4"/>
        <stop offset="1" stop-color="#c061cb"/>
    </linearGradient>
    <radialGradient id="b" cx="100.681534" cy="154.249924" gradientTransform="matrix(7.350074 -2.455479 2.322672 7.079031 -1052.483869 -754.072847)" r="13.343357" xlink:href="#a"/>
    <radialGradient id="c" cx="100.681534" cy="154.249924" gradientTransform="matrix(7.350082 -2.128321 2.322674 6.135848 -1052.485126 -653.076024)" gradientUnits="userSpaceOnUse" r="13.343357">
        <stop offset="0" stop-color="#287fe2"/>
        <stop offset="1" stop-color="#9838a3"/>
    </radialGradient>
    <radialGradient id="d" cx="101.183327" cy="154.572784" gradientTransform="matrix(7.041883 -1.402249 1.5303 5.878563 -900.288351 -689.56364)" gradientUnits="userSpaceOnUse" r="13.343357">
        <stop offset="0" stop-color="#1a5fb4"/>
        <stop offset="0.255826" stop-color="#504da7"/>
        <stop offset="0.930337" stop-color="#813d9c"/>
    </radialGradient>
    <radialGradient id="e" cx="101.052162" cy="223.922455" gradientTransform="matrix(1.400192 -0.583977 0.589053 1.412363 -216.478531 -215.773373)" r="15.549469" xlink:href="#a"/>
    <linearGradient id="f" gradientUnits="userSpaceOnUse">
        <stop offset="0" stop-color="#f5c211"/>
        <stop offset="1" stop-color="#f07527"/>
    </linearGradient>
    <radialGradient id="g" cx="101.052162" cy="223.922455" gradientTransform="matrix(1.311806 0.76206 -0.768683 1.323208 92.721657 -290.183649)" r="15.549469" xlink:href="#f"/>
    <radialGradient id="h" cx="101.052162" cy="223.922455" gradientTransform="matrix(1.311806 0.76206 -0.768683 1.323208 70.302457 -331.576484)" r="15.549469" xlink:href="#f"/>
    <radialGradient id="i" cx="101.052162" cy="223.922455" gradientTransform="matrix(1.400192 -0.583977 0.589053 1.412363 -193.941147 -176.901761)" r="15.549469" xlink:href="#a"/>
    <radialGradient id="j" cx="101.052162" cy="223.922455" gradientTransform="matrix(1.311806 0.76206 -0.768683 1.323208 115.259024 -329.562364)" r="15.549469" xlink:href="#f"/>
    <radialGradient id="k" cx="101.052162" cy="223.922455" gradientTransform="matrix(1.400518 -0.584113 0.58919 1.412691 -238.965973 -175.7648)" r="15.549469" xlink:href="#a"/>
    <radialGradient id="l" cx="101.052162" cy="223.922455" gradientTransform="matrix(1.311806 0.76206 -0.768683 1.323208 91.896698 -314.723054)" r="15.549469" xlink:href="#f"/>
    <clipPath id="m">
        <rect height="128" width="128"/>
    </clipPath>
    <clipPath id="n">
        <rect height="128" width="128"/>
    </clipPath>
    <filter id="o" height="100%" width="100%" x="0%" y="0%">
        <feColorMatrix in="SourceGraphic" type="matrix" values="0 0 0 0 1 0 0 0 0 1 0 0 0 0 1 0 0 0 1 0"/>
    </filter>
    <mask id="p">
        <g clip-path="url(#n)" filter="url(#o)">
            <g clip-path="url(#m)">
                <path d="m 61.570312 4.007812 c -28.632812 1.238282 -52.320312 22.898438 -56.355468 51.53125 h -0.71875 v 8.460938 c -0.042969 0.816406 0.058594 1.632812 0.050781 2.453125 c 1.339844 33.132813 29.046875 58.894531 61.882813 57.539063 c 31.84375 -1.378907 57.078124 -27.832032 57.074218 -59.992188 h 0.003906 v -8.460938 h -0.722656 c -4.304687 -30.46875 -30.738281 -52.722656 -61.214844 -51.53125 z m 0 0" fill="url(#b)"/>
                <path d="m 123.453125 53.875 c 1.34375 28.71875 -24.1875 52.949219 -57.023437 54.125 c -32.835938 1.171875 -60.542969 -21.15625 -61.882813 -49.875 c -1.34375 -28.71875 24.1875 -52.949219 57.023437 -54.125 c 32.835938 -1.175781 60.542969 21.15625 61.882813 49.875 z m 0 0" fill="url(#c)"/>
                <path d="m 119.421875 58.667969 c -1.6875 26.769531 -27.867187 47.277343 -58.472656 45.804687 c -30.609375 -1.472656 -54.054688 -24.371094 -52.371094 -51.140625 c 1.6875 -26.773437 27.863281 -47.277343 58.472656 -45.804687 s 54.054688 24.371094 52.371094 51.140625 z m 0 0" fill="url(#d)"/>
                <path d="m 81.460938 32.9375 c 0 9.304688 -7.542969 16.851562 -16.851563 16.851562 s -16.851563 -7.546874 -16.851563 -16.851562 c 0 -9.308594 7.542969 -16.855469 16.851563 -16.855469 s 16.851563 7.546875 16.851563 16.855469 z m 0 0" fill="url(#e)"/>
                <path d="m 74.800781 97.507812 c -7.414062 5.625 -17.984375 4.179688 -23.613281 -3.234374 c -5.628906 -7.410157 -4.183594 -17.984376 3.230469 -23.613282 c 7.414062 -5.625 17.984375 -4.179687 23.613281 3.234375 c 5.628906 7.410157 4.179688 17.984375 -3.230469 23.613281 z m 0 0" fill="url(#g)"/>
                <path d="m 52.378906 56.113281 c -7.410156 5.628907 -17.984375 4.183594 -23.609375 -3.230469 c -5.628906 -7.414062 -4.183593 -17.984374 3.230469 -23.613281 c 7.414062 -5.628906 17.984375 -4.183593 23.613281 3.230469 c 5.628907 7.414062 4.179688 17.984375 -3.234375 23.613281 z m 0 0" fill="url(#h)"/>
                <path d="m 104 71.808594 c 0 9.304687 -7.546875 16.851562 -16.851562 16.851562 c -9.308594 0 -16.855469 -7.546875 -16.855469 -16.851562 c 0 -9.308594 7.546875 -16.851563 16.855469 -16.851563 c 9.304687 0 16.851562 7.542969 16.851562 16.851563 z m 0 0" fill="url(#i)"/>
                <path d="m 97.335938 58.128906 c -7.410157 5.628906 -17.984376 4.179688 -23.613282 -3.234375 c -5.625 -7.410156 -4.179687 -17.984375 3.234375 -23.609375 c 7.410157 -5.628906 17.984375 -4.183594 23.613281 3.230469 c 5.625 7.414063 4.179688 17.984375 -3.234374 23.613281 z m 0 0" fill="url(#j)"/>
                <path d="m 59.042969 73.003906 c 0 9.308594 -7.546875 16.855469 -16.855469 16.855469 s -16.855469 -7.546875 -16.855469 -16.855469 c 0 -9.3125 7.546875 -16.859375 16.855469 -16.859375 s 16.855469 7.546875 16.855469 16.859375 z m 0 0" fill="url(#k)"/>
                <path d="m 73.976562 72.96875 c -7.414062 5.625 -17.988281 4.179688 -23.613281 -3.234375 c -5.628906 -7.410156 -4.183593 -17.984375 3.230469 -23.613281 c 7.414062 -5.625 17.984375 -4.179688 23.613281 3.234375 c 5.628907 7.410156 4.179688 17.984375 -3.230469 23.613281 z m 0 0" fill="url(#l)"/>
            </g>
        </g>
    </mask>
    <mask id="q">
        <g filter="url(#o)">
            <rect fill-opacity="0.8" height="128" width="128"/>
        </g>
    </mask>
    <linearGradient id="r" gradientTransform="matrix(0 0.37 -0.98462 0 295.38501 -30.360001)" gradientUnits="userSpaceOnUse" x1="300" x2="428" y1="235" y2="235">
        <stop offset="0" stop-color="#f9f06b"/>
        <stop offset="1" stop-color="#f5c211"/>
    </linearGradient>
    <clipPath id="s">
        <rect height="128" width="128"/>
    </clipPath>
    <clipPath id="t">
        <rect height="128" width="128"/>
    </clipPath>
    <path d="m 61.570312 4.007812 c -28.632812 1.238282 -52.320312 22.898438 -56.355468 51.53125 h -0.71875 v 8.460938 c -0.042969 0.816406 0.058594 1.632812 0.050781 2.453125 c 1.339844 33.132813 29.046875 58.894531 61.882813 57.539063 c 31.84375 -1.378907 57.078124 -27.832032 57.074218 -59.992188 h 0.003906 v -8.460938 h -0.722656 c -4.304687 -30.46875 -30.738281 -52.722656 -61.214844 -51.53125 z m 0 0" fill="url(#b)"/>
    <path d="m 123.453125 53.875 c 1.34375 28.71875 -24.1875 52.949219 -57.023437 54.125 c -32.835938 1.171875 -60.542969 -21.15625 -61.882813 -49.875 c -1.34375 -28.71875 24.1875 -52.949219 57.023437 -54.125 c 32.835938 -1.175781 60.542969 21.15625 61.882813 49.875 z m 0 0" fill="url(#c)"/>
    <path d="m 119.421875 58.667969 c -1.6875 26.769531 -27.867187 47.277343 -58.472656 45.804687 c -30.609375 -1.472656 -54.054688 -24.371094 -52.371094 -51.140625 c 1.6875 -26.773437 27.863281 -47.277343 58.472656 -45.804687 s 54.054688 24.371094 52.371094 51.140625 z m 0 0" fill="url(#d)"/>
    <path d="m 81.460938 32.9375 c 0 9.304688 -7.542969 16.851562 -16.851563 16.851562 s -16.851563 -7.546874 -16.851563 -16.851562 c 0 -9.308594 7.542969 -16.855469 16.851563 -16.855469 s 16.851563 7.546875 16.851563 16.855469 z m 0 0" fill="url(#e)"/>
    <path d="m 74.800781 97.507812 c -7.414062 5.625 -17.984375 4.179688 -23.613281 -3.234374 c -5.628906 -7.410157 -4.183594 -17.984376 3.230469 -23.613282 c 7.414062 -5.625 17.984375 -4.179687 23.613281 3.234375 c 5.628906 7.410157 4.179688 17.984375 -3.230469 23.613281 z m 0 0" fill="url(#g)"/>
    <path d="m 52.378906 56.113281 c -7.410156 5.628907 -17.984375 4.183594 -23.609375 -3.230469 c -5.628906 -7.414062 -4.183593 -17.984374 3.230469 -23.613281 c 7.414062 -5.628906 17.984375 -4.183593 23.613281 3.230469 c 5.628907 7.414062 4.179688 17.984375 -3.234375 23.613281 z m 0 0" fill="url(#h)"/>
    <path d="m 104 71.808594 c 0 9.304687 -7.546875 16.851562 -16.851562 16.851562 c -9.308594 0 -16.855469 -7.546875 -16.855469 -16.851562 c 0 -9.308594 7.546875 -16.851563 16.855469 -16.851563 c 9.304687 0 16.851562 7.542969 16.851562 16.851563 z m 0 0" fill="url(#i)"/>
    <path d="m 97.335938 58.128906 c -7.410157 5.628906 -17.984376 4.179688 -23.613282 -3.234375 c -5.625 -7.410156 -4.179687 -17.984375 3.234375 -23.609375 c 7.410157 -5.628906 17.984375 -4.183594 23.613281 3.230469 c 5.625 7.414063 4.179688 17.984375 -3.234374 23.613281 z m 0 0" fill="url(#j)"/>
    <path d="m 59.042969 73.003906 c 0 9.308594 -7.546875 16.855469 -16.855469 16.855469 s -16.855469 -7.546875 -16.855469 -16.855469 c 0 -9.3125 7.546875 -16.859375 16.855469 -16.859375 s 16.855469 7.546875 16.855469 16.859375 z m 0 0" fill="url(#k)"/>
    <path d="m 73.976562 72.96875 c -7.414062 5.625 -17.988281 4.179688 -23.613281 -3.234375 c -5.628906 -7.410156 -4.183593 -17.984375 3.230469 -23.613281 c 7.414062 -5.625 17.984375 -4.179688 23.613281 3.234375 c 5.628907 7.410156 4.179688 17.984375 -3.230469 23.613281 z m 0 0" fill="url(#l)"/>
    <g clip-path="url(#t)" mask="url(#p)">
        <g clip-path="url(#s)" mask="url(#q)">
            <path d="m 128 80.640625 v 47.359375 h -128 v -47.359375 z m 0 0" fill="url(#r)"/>
            <path d="m 13.308594 80.640625 l 47.355468 47.359375 h 21.214844 l -47.359375 -47.359375 z m 42.421875 0 l 47.363281 47.359375 h 21.214844 l -47.363282 -47.359375 z m 42.429687 0 l 29.839844 29.839844 v -21.210938 l -8.628906 -8.628906 z m -98.160156 7.90625 v 21.214844 l 18.238281 18.238281 h 21.214844 z m 0 0"/>
        </g>
    </g>
</svg>
