<?xml version="1.0" encoding="UTF-8" standalone="no"?><!-- Generator: Gravit.io --><svg xmlns="http://www.w3.org/2000/svg" xmlns:xlink="http://www.w3.org/1999/xlink" style="isolation:isolate" viewBox="0 0 498 498" width="498pt" height="498pt"><defs><clipPath id="_clipPath_rzf5YGAekya7c8YxULJMaLhV5dkSuPKo"><rect width="498" height="498"/></clipPath></defs><g clip-path="url(#_clipPath_rzf5YGAekya7c8YxULJMaLhV5dkSuPKo)"><rect width="498" height="498" style="fill:rgb(0,0,0)" fill-opacity="0"/><linearGradient id="_lgradient_19" x1="0" y1="0.5" x2="1" y2="0.5" gradientTransform="matrix(495.677,-132.592,23.865,88.916,1.162,314.875)" gradientUnits="userSpaceOnUse"><stop offset="0%" stop-opacity="1" style="stop-color:rgb(98,0,181)"/><stop offset="100%" stop-opacity="1" style="stop-color:rgb(62,20,74)"/></linearGradient><path d=" M 496.838 182.283 L 496.838 182.283 L 496.838 182.283 C 510.01 231.358 409.651 300.906 272.865 337.496 C 136.08 374.085 14.333 363.949 1.162 314.875 L 1.162 314.875 L 1.162 314.875 L 1.162 314.875 L 1.162 314.875 C 9.609 346.347 127.519 342.191 264.305 305.602 C 401.091 269.012 505.285 213.755 496.838 182.283 L 496.838 182.283 Z " fill="url(#_lgradient_19)"/><linearGradient id="_lgradient_20" x1="0" y1="0.5" x2="1" y2="0.5" gradientTransform="matrix(132.816,-494.839,89.067,23.825,182.592,495.999)" gradientUnits="userSpaceOnUse"><stop offset="0%" stop-opacity="1" style="stop-color:rgb(98,0,181)"/><stop offset="100%" stop-opacity="1" style="stop-color:rgb(62,20,74)"/></linearGradient><path d=" M 315.408 1.16 L 315.408 1.16 L 315.408 1.16 C 364.565 14.309 374.719 135.85 338.067 272.404 C 301.415 408.959 231.749 509.148 182.592 495.999 L 182.592 495.999 L 182.592 495.999 L 182.592 495.999 L 182.592 495.999 C 214.117 504.432 269.467 400.413 306.119 263.858 C 342.771 127.304 346.933 9.592 315.408 1.16 L 315.408 1.16 Z " fill="url(#_lgradient_20)"/><linearGradient id="_lgradient_21" x1="0" y1="0.5" x2="1" y2="0.5" gradientTransform="matrix(-362.861,-362.247,65.202,-65.091,430.43,429.703)" gradientUnits="userSpaceOnUse"><stop offset="0%" stop-opacity="1" style="stop-color:rgb(98,0,181)"/><stop offset="100%" stop-opacity="1" style="stop-color:rgb(62,20,74)"/></linearGradient><path d=" M 67.57 67.456 L 67.57 67.456 L 67.57 67.456 C 103.555 31.531 214.067 83.523 314.202 183.488 C 414.336 283.453 466.416 393.778 430.43 429.703 L 430.43 429.703 L 430.43 429.703 L 430.43 429.703 L 430.43 429.703 C 453.508 406.664 390.948 306.801 290.814 206.836 C 190.68 106.871 90.648 44.417 67.57 67.456 L 67.57 67.456 Z " fill="url(#_lgradient_21)"/><path d=" M 496.838 184.285 L 496.838 184.285 L 496.838 184.285 C 483.667 135.21 361.92 125.074 225.135 161.664 C 88.349 198.254 -12.01 267.802 1.162 316.876 L 1.162 316.876 L 1.162 316.876 L 1.162 316.876 L 1.162 316.876 C -7.285 285.405 96.909 230.148 233.695 193.558 C 370.481 156.968 488.391 152.813 496.838 184.285 L 496.838 184.285 Z " fill="rgb(72,4,70)"/><linearGradient id="_lgradient_22" x1="0" y1="0.5" x2="1" y2="0.5" gradientTransform="matrix(495.677,-132.592,-23.865,-88.916,1.162,314.875)" gradientUnits="userSpaceOnUse"><stop offset="0%" stop-opacity="1" style="stop-color:rgb(255,0,247)"/><stop offset="100%" stop-opacity="1" style="stop-color:rgb(121,0,191)"/></linearGradient><path d=" M 496.838 182.283 L 496.838 182.283 L 496.838 182.283 C 483.667 133.209 361.92 123.073 225.135 159.663 C 88.349 196.253 -12.01 265.801 1.162 314.875 L 1.162 314.875 L 1.162 314.875 L 1.162 314.875 L 1.162 314.875 C -7.285 283.404 96.909 228.146 233.695 191.557 C 370.481 154.967 488.391 150.812 496.838 182.283 L 496.838 182.283 Z " fill="url(#_lgradient_22)"/><path d=" M 315.408 3.161 L 315.408 3.161 L 315.408 3.161 C 266.251 -9.989 196.585 90.201 159.933 226.755 C 123.281 363.31 133.435 484.851 182.592 498 L 182.592 498 L 182.592 498 L 182.592 498 L 182.592 498 C 151.067 489.567 155.229 371.856 191.881 235.301 C 228.533 98.747 283.883 -5.272 315.408 3.161 L 315.408 3.161 Z " fill="rgb(72,4,70)"/><linearGradient id="_lgradient_23" x1="0" y1="0.5" x2="1" y2="0.5" gradientTransform="matrix(132.816,-494.839,-89.067,-23.825,182.592,495.999)" gradientUnits="userSpaceOnUse"><stop offset="0%" stop-opacity="1" style="stop-color:rgb(255,0,247)"/><stop offset="100%" stop-opacity="1" style="stop-color:rgb(121,0,191)"/></linearGradient><path d=" M 315.408 1.16 L 315.408 1.16 L 315.408 1.16 C 266.251 -11.99 196.585 88.2 159.933 224.754 C 123.281 361.309 133.435 482.849 182.592 495.999 L 182.592 495.999 L 182.592 495.999 L 182.592 495.999 L 182.592 495.999 C 151.067 487.566 155.229 369.855 191.881 233.3 C 228.533 96.746 283.883 -7.273 315.408 1.16 L 315.408 1.16 Z " fill="url(#_lgradient_23)"/><path d=" M 67.57 69.457 L 67.57 69.457 L 67.57 69.457 C 31.584 105.382 83.664 215.707 183.798 315.672 C 283.933 415.637 394.445 467.629 430.43 431.704 L 430.43 431.704 L 430.43 431.704 L 430.43 431.704 L 430.43 431.704 C 407.352 454.743 307.32 392.289 207.186 292.324 C 107.052 192.359 44.492 92.495 67.57 69.457 L 67.57 69.457 Z " fill="rgb(72,4,70)"/><linearGradient id="_lgradient_24" x1="0" y1="0.5" x2="1" y2="0.5" gradientTransform="matrix(-362.861,-362.247,-65.202,65.091,430.43,429.703)" gradientUnits="userSpaceOnUse"><stop offset="0%" stop-opacity="1" style="stop-color:rgb(255,0,247)"/><stop offset="100%" stop-opacity="1" style="stop-color:rgb(162,0,255)"/></linearGradient><path d=" M 67.57 67.456 L 67.57 67.456 L 67.57 67.456 C 31.584 103.38 83.664 213.706 183.798 313.671 C 283.933 413.636 394.445 465.628 430.43 429.703 L 430.43 429.703 L 430.43 429.703 L 430.43 429.703 L 430.43 429.703 C 407.352 452.742 307.32 390.288 207.186 290.323 C 107.052 190.358 44.492 90.494 67.57 67.456 L 67.57 67.456 Z " fill="url(#_lgradient_24)"/><linearGradient id="_lgradient_25" x1="0.1464466094067262" y1="0.14644660940672627" x2="0.8535533905932737" y2="0.8535533905932737" gradientTransform="matrix(74.889,0,0,74.762,210.975,211.778)" gradientUnits="userSpaceOnUse"><stop offset="1.25%" stop-opacity="1" style="stop-color:rgb(255,92,209)"/><stop offset="48.75%" stop-opacity="1" style="stop-color:rgb(238,8,188)"/><stop offset="100%" stop-opacity="1" style="stop-color:rgb(162,4,157)"/></linearGradient><ellipse vector-effect="non-scaling-stroke" cx="248.41918213425566" cy="249.1590963111653" rx="37.444461575734465" ry="37.3811909418728" fill="url(#_lgradient_25)"/><linearGradient id="_lgradient_26" x1="0.1464466094067262" y1="0.14644660940672627" x2="0.8535533905932737" y2="0.8535533905932737" gradientTransform="matrix(48.047,0,0,47.965,130.413,56.079)" gradientUnits="userSpaceOnUse"><stop offset="1.25%" stop-opacity="1" style="stop-color:rgb(255,92,209)"/><stop offset="48.75%" stop-opacity="1" style="stop-color:rgb(238,8,188)"/><stop offset="100%" stop-opacity="1" style="stop-color:rgb(162,4,157)"/></linearGradient><ellipse vector-effect="non-scaling-stroke" cx="154.43654040925722" cy="80.06165397520707" rx="24.02332054501582" ry="23.982727873779996" fill="url(#_lgradient_26)"/><linearGradient id="_lgradient_27" x1="0.1464466094067262" y1="0.14644660940672627" x2="0.8535533905932737" y2="0.8535533905932737" gradientTransform="matrix(48.047,0,0,47.965,423.076,222.915)" gradientUnits="userSpaceOnUse"><stop offset="1.25%" stop-opacity="1" style="stop-color:rgb(255,92,209)"/><stop offset="48.75%" stop-opacity="1" style="stop-color:rgb(238,8,188)"/><stop offset="100%" stop-opacity="1" style="stop-color:rgb(162,4,157)"/></linearGradient><ellipse vector-effect="non-scaling-stroke" cx="447.09942046685177" cy="246.89744138983008" rx="24.023320545015793" ry="23.982727873780007" fill="url(#_lgradient_27)"/><linearGradient id="_lgradient_28" x1="0.1464466094067262" y1="0.14644660940672627" x2="0.8535533905932737" y2="0.8535533905932737" gradientTransform="matrix(48.047,0,0,47.965,206.651,441.08)" gradientUnits="userSpaceOnUse"><stop offset="1.25%" stop-opacity="1" style="stop-color:rgb(255,92,209)"/><stop offset="48.75%" stop-opacity="1" style="stop-color:rgb(238,8,188)"/><stop offset="100%" stop-opacity="1" style="stop-color:rgb(162,4,157)"/></linearGradient><ellipse vector-effect="non-scaling-stroke" cx="230.67462003197238" cy="465.06232150164783" rx="24.02332054501582" ry="23.982727873779993" fill="url(#_lgradient_28)"/><ellipse vector-effect="non-scaling-stroke" cx="230.67462003197238" cy="465.06232150164783" rx="24.02332054501582" ry="23.982727873779993" fill="none"/></g></svg>